<svg width="160" height="24" viewBox="0 0 160 24" fill="none" xmlns="http://www.w3.org/2000/svg">
<rect width="24" height="24" rx="5" fill="#00B67A"/>
<path d="M11.5686 6.0406L9.94425 9.36433L6.27066 9.88913C5.62091 9.98909 5.37101 10.7888 5.84583 11.2636L8.46982 13.8376L7.84506 17.4612C7.7451 18.111 8.44483 18.6108 9.01961 18.3109L12.2934 16.5866L15.5421 18.3109C16.1169 18.6108 16.8166 18.111 16.7167 17.4612L16.0919 13.8376L18.7159 11.2636C19.1907 10.7888 18.9408 9.98909 18.291 9.88913L14.6424 9.36433L12.9931 6.0406C12.7182 5.46582 11.8685 5.44083 11.5686 6.0406Z" fill="white"/>
<rect x="34" width="24" height="24" rx="5" fill="#00B67A"/>
<path d="M45.5686 6.0406L43.9443 9.36433L40.2707 9.88913C39.6209 9.98909 39.371 10.7888 39.8458 11.2636L42.4698 13.8376L41.8451 17.4612C41.7451 18.111 42.4448 18.6108 43.0196 18.3109L46.2934 16.5866L49.5421 18.3109C50.1169 18.6108 50.8166 18.111 50.7167 17.4612L50.0919 13.8376L52.7159 11.2636C53.1907 10.7888 52.9408 9.98909 52.291 9.88913L48.6424 9.36433L46.9931 6.0406C46.7182 5.46582 45.8685 5.44083 45.5686 6.0406Z" fill="white"/>
<rect x="68" width="24" height="24" rx="5" fill="#00B67A"/>
<path d="M79.5686 6.0406L77.9443 9.36433L74.2707 9.88913C73.6209 9.98909 73.371 10.7888 73.8458 11.2636L76.4698 13.8376L75.8451 17.4612C75.7451 18.111 76.4448 18.6108 77.0196 18.3109L80.2934 16.5866L83.5421 18.3109C84.1169 18.6108 84.8166 18.111 84.7167 17.4612L84.0919 13.8376L86.7159 11.2636C87.1907 10.7888 86.9408 9.98909 86.291 9.88913L82.6424 9.36433L80.9931 6.0406C80.7182 5.46582 79.8685 5.44083 79.5686 6.0406Z" fill="white"/>
<rect x="102" width="24" height="24" rx="5" fill="#00B67A"/>
<path d="M113.569 6.0406L111.944 9.36433L108.271 9.88913C107.621 9.98909 107.371 10.7888 107.846 11.2636L110.47 13.8376L109.845 17.4612C109.745 18.111 110.445 18.6108 111.02 18.3109L114.293 16.5866L117.542 18.3109C118.117 18.6108 118.817 18.111 118.717 17.4612L118.092 13.8376L120.716 11.2636C121.191 10.7888 120.941 9.98909 120.291 9.88913L116.642 9.36433L114.993 6.0406C114.718 5.46582 113.869 5.44083 113.569 6.0406Z" fill="white"/>
<rect x="136" width="24" height="24" rx="5" fill="#00B67A"/>
<path d="M147.569 6.0406L145.944 9.36433L142.271 9.88913C141.621 9.98909 141.371 10.7888 141.846 11.2636L144.47 13.8376L143.845 17.4612C143.745 18.111 144.445 18.6108 145.02 18.3109L148.293 16.5866L151.542 18.3109C152.117 18.6108 152.817 18.111 152.717 17.4612L152.092 13.8376L154.716 11.2636C155.191 10.7888 154.941 9.98909 154.291 9.88913L150.642 9.36433L148.993 6.0406C148.718 5.46582 147.869 5.44083 147.569 6.0406Z" fill="white"/>
</svg>
